<?xml version="1.0" encoding="UTF-8" standalone="no"?>
<!-- Created with Inkscape (http://www.inkscape.org/) -->

<svg
   width="297mm"
   height="210mm"
   viewBox="0 0 297 210"
   version="1.1"
   id="svg5"
   inkscape:version="1.2.2 (b0a8486541, 2022-12-01)"
   sodipodi:docname="home_img.svg"
   xmlns:inkscape="http://www.inkscape.org/namespaces/inkscape"
   xmlns:sodipodi="http://sodipodi.sourceforge.net/DTD/sodipodi-0.dtd"
   xmlns="http://www.w3.org/2000/svg"
   xmlns:svg="http://www.w3.org/2000/svg">
  <sodipodi:namedview
     id="namedview7"
     pagecolor="#ffffff"
     bordercolor="#999999"
     borderopacity="1"
     inkscape:showpageshadow="0"
     inkscape:pageopacity="0"
     inkscape:pagecheckerboard="0"
     inkscape:deskcolor="#d1d1d1"
     inkscape:document-units="mm"
     showgrid="false"
     inkscape:zoom="0.58"
     inkscape:cx="468.10345"
     inkscape:cy="414.65517"
     inkscape:window-width="1366"
     inkscape:window-height="699"
     inkscape:window-x="0"
     inkscape:window-y="32"
     inkscape:window-maximized="1"
     inkscape:current-layer="layer1" />
  <defs
     id="defs2" />
  <g
     inkscape:label="Layer 1"
     inkscape:groupmode="layer"
     id="layer1">
    <path
       id="rect6926"
       style="color:#000000;fill:#202020;fill-opacity:1;fill-rule:evenodd;stroke:#000000;stroke-width:0.688719;stroke-dasharray:none;stroke-opacity:0.614073"
       d="m 83.846293,99.392142 c -4.778242,0 -8.631305,3.854558 -8.631305,8.632788 v 0.73851 c 0,4.77823 3.853063,8.63249 8.631305,8.63249 h 44.279087 v -0.0234 h 0.0112 c 0.86556,0 1.64931,-0.11125 2.23301,-0.29926 0.29184,-0.094 0.5335,-0.20608 0.71625,-0.34523 0.18276,-0.13914 0.31812,-0.32204 0.31824,-0.54038 8e-5,-0.21838 -0.13552,-0.40118 -0.31824,-0.54039 -0.18271,-0.1392 -0.42439,-0.25119 -0.71625,-0.34522 -0.31139,-0.10033 -0.67976,-0.17878 -1.087,-0.23016 3.21462,-0.8788 5.545,-3.39034 5.545,-6.39028 v -0.57478 c 0,-3.00684 -2.34064,-5.52303 -5.56665,-6.39622 0.41583,-0.0516 0.79175,-0.13132 1.10865,-0.23342 0.29186,-0.094 0.53354,-0.20603 0.71625,-0.34523 0.18272,-0.13921 0.31832,-0.3217 0.31824,-0.54009 8e-5,-0.21838 -0.13552,-0.40117 -0.31824,-0.54038 -0.18271,-0.1392 -0.42439,-0.251191 -0.71625,-0.345231 -0.58374,-0.188077 -1.36726,-0.299259 -2.23301,-0.299254 h -0.0112 v -0.01481 z m 44.279087,0.40484 h 0.0112 c 0.83184,-6e-6 1.5842,0.109932 2.11288,0.280278 0.26436,0.0852 0.47259,0.18697 0.6009,0.28473 0.1283,0.0977 0.16492,0.17477 0.1649,0.22985 2e-5,0.0551 -0.0366,0.13299 -0.1649,0.23074 -0.12831,0.0978 -0.33654,0.19955 -0.6009,0.28473 -0.52868,0.17034 -1.28104,0.28028 -2.11288,0.28028 h -0.0112 v -0.027 H 86.323691 c -2.529104,0 -4.816213,0.73746 -6.482524,1.94828 -1.666305,1.21083 -2.716154,2.90867 -2.716154,4.79881 v 0.573 c 0,1.89013 1.049849,3.58797 2.716154,4.79879 1.666311,1.21083 3.95342,1.94829 6.482524,1.94829 h 41.801689 v -0.0359 h 0.0112 c 0.83184,-1e-5 1.5842,0.11082 2.11288,0.28117 0.26436,0.0852 0.47259,0.18696 0.6009,0.28472 0.1283,0.0978 0.16492,0.17478 0.1649,0.22985 -3e-5,0.0551 -0.0365,0.1333 -0.1649,0.23105 -0.12837,0.0977 -0.33655,0.19839 -0.6009,0.28353 -0.52867,0.1703 -1.28121,0.28147 -2.11288,0.28146 h -0.0112 v -0.046 H 83.846293 c -4.531812,0 -8.172779,-3.64246 -8.172779,-8.17426 v -0.7385 c 0,-4.53182 3.640967,-8.173088 8.172779,-8.173088 h 44.279087 z m -41.801689,2.023328 h 41.645689 l -0.004,0.0314 c 3.69457,0.48071 6.47007,3.10264 6.47007,6.25505 v 0.57478 c 0,3.15381 -2.77868,5.77723 -6.4757,6.25623 l 0.004,0.0314 H 86.323691 c -2.43957,0 -4.636257,-0.71672 -6.212334,-1.86198 -1.576082,-1.14527 -2.52663,-2.70601 -2.52663,-4.42657 v -0.57301 c 0,-1.72056 0.950548,-3.28133 2.52663,-4.42659 1.576077,-1.14526 3.772764,-1.86079 6.212334,-1.86079 z" />
    <path
       id="path7239"
       style="color:#000000;fill:#202020;fill-opacity:1;fill-rule:evenodd;stroke:#000000;stroke-width:0.688719;stroke-dasharray:none;stroke-opacity:0.614073"
       d="m 126.19637,80.720639 c 4.77824,0 8.6313,3.854554 8.6313,8.632784 v 0.738502 c 0,4.77823 -3.85306,8.632487 -8.6313,8.632487 H 81.917283 v -0.02341 h -0.01125 c -0.865565,5e-6 -1.64931,-0.111246 -2.233011,-0.299255 -0.291845,-0.09401 -0.533511,-0.206082 -0.716262,-0.345232 -0.182752,-0.139144 -0.318114,-0.322039 -0.318235,-0.54038 -8e-5,-0.218388 0.135518,-0.401179 0.318235,-0.540387 0.182711,-0.139201 0.4244,-0.251187 0.716262,-0.345226 0.311387,-0.100329 0.67976,-0.17878 1.086994,-0.230152 -3.214626,-0.878801 -5.545005,-3.390347 -5.545005,-6.390281 v -0.574792 c 0,-3.006833 2.340653,-5.523016 5.566654,-6.396214 -0.415826,-0.0516 -0.791752,-0.131317 -1.108643,-0.233419 -0.291862,-0.09404 -0.533551,-0.206025 -0.716262,-0.345227 -0.182717,-0.139207 -0.318315,-0.3217 -0.318235,-0.540087 -8e-5,-0.218388 0.135518,-0.401174 0.318235,-0.540381 0.182711,-0.139202 0.4244,-0.251193 0.716262,-0.345232 0.58373,-0.188077 1.367262,-0.29926 2.233011,-0.299254 h 0.01125 v -0.01481 z m -44.279087,0.40484 h -0.01125 c -0.831846,-6e-6 -1.584203,0.109932 -2.112892,0.28028 -0.264349,0.08517 -0.472583,0.18697 -0.600891,0.284723 -0.128303,0.09775 -0.16492,0.174779 -0.164902,0.229854 -1.8e-5,0.0551 0.03662,0.132991 0.164902,0.230744 0.128308,0.09775 0.336542,0.199551 0.600891,0.284728 0.528689,0.170343 1.281046,0.280279 2.112892,0.280274 h 0.01125 v -0.02698 h 41.801687 c 2.52911,0 4.81622,0.737463 6.48253,1.948284 1.6663,1.210824 2.71615,2.908666 2.71615,4.798793 v 0.573008 c 0,1.890127 -1.04985,3.587964 -2.71615,4.798789 -1.66631,1.21082 -3.95342,1.948289 -6.48253,1.948289 H 81.917283 v -0.03587 h -0.01125 c -0.831846,-5e-6 -1.584203,0.110821 -2.112892,0.281163 -0.264349,0.08518 -0.472583,0.186971 -0.600891,0.284723 -0.128303,0.09775 -0.16492,0.174785 -0.164902,0.22986 3.4e-5,0.05504 0.0365,0.133302 0.164902,0.231042 0.128371,0.09775 0.336548,0.198391 0.600891,0.283535 0.528683,0.170297 1.281223,0.281468 2.112892,0.281462 h 0.01125 v -0.04597 h 44.279087 c 4.53181,0 8.17278,-3.642457 8.17278,-8.174258 V 89.35345 c 0,-4.531806 -3.64097,-8.173075 -8.17278,-8.173075 H 81.917283 Z m 41.801687,2.023326 H 82.073283 l 0.004,0.03145 c -3.694571,0.480709 -6.470069,3.102645 -6.470069,6.255039 v 0.574788 c 0,3.153811 2.778677,5.777229 6.475705,6.256222 l -0.004,0.03145 h 41.640051 c 2.43957,0 4.63626,-0.716722 6.21234,-1.861981 1.57608,-1.14526 2.52663,-2.706012 2.52663,-4.426571 v -0.573009 c 0,-1.720558 -0.95055,-3.281316 -2.52663,-4.426575 -1.57608,-1.145259 -3.77277,-1.860793 -6.21234,-1.860793 z" />
    <path
       id="path7241"
       style="color:#000000;fill:#202020;fill-opacity:1;fill-rule:evenodd;stroke:#000000;stroke-width:0.688719;stroke-dasharray:none;stroke-opacity:0.614073"
       d="m 126.19637,118.03425 c 4.77824,0 8.6313,3.85455 8.6313,8.63279 v 0.7385 c 0,4.77823 -3.85306,8.63248 -8.6313,8.63248 H 81.917283 v -0.0234 h -0.01125 c -0.865565,1e-5 -1.64931,-0.11124 -2.233011,-0.29925 -0.291845,-0.094 -0.533511,-0.20609 -0.716262,-0.34523 -0.182752,-0.13915 -0.318114,-0.32205 -0.318235,-0.54039 -8e-5,-0.21839 0.135518,-0.40118 0.318235,-0.54038 0.182711,-0.1392 0.4244,-0.25119 0.716262,-0.34523 0.311387,-0.10033 0.67976,-0.17878 1.086994,-0.23015 -3.214626,-0.8788 -5.545005,-3.39035 -5.545005,-6.39028 v -0.57479 c 0,-3.00683 2.340653,-5.52302 5.566654,-6.39622 -0.415826,-0.0516 -0.791752,-0.13131 -1.108643,-0.23341 -0.291862,-0.094 -0.533551,-0.20603 -0.716262,-0.34523 -0.182717,-0.13921 -0.318315,-0.3217 -0.318235,-0.54009 -8e-5,-0.21838 0.135518,-0.40117 0.318235,-0.54038 0.182711,-0.1392 0.4244,-0.25119 0.716262,-0.34523 0.58373,-0.18808 1.367262,-0.29926 2.233011,-0.29925 h 0.01125 v -0.0148 z m -44.279087,0.40484 h -0.01125 c -0.831846,0 -1.584203,0.10993 -2.112892,0.28028 -0.264349,0.0852 -0.472583,0.18697 -0.600891,0.28472 -0.128303,0.0977 -0.16492,0.17478 -0.164902,0.22986 -1.8e-5,0.0551 0.03662,0.13299 0.164902,0.23074 0.128308,0.0977 0.336542,0.19955 0.600891,0.28473 0.528689,0.17035 1.281046,0.28028 2.112892,0.28028 h 0.01125 v -0.027 h 41.801687 c 2.52911,0 4.81622,0.73745 6.48253,1.94827 1.6663,1.21083 2.71615,2.90868 2.71615,4.7988 v 0.57301 c 0,1.89012 -1.04985,3.58796 -2.71615,4.79879 -1.66631,1.21082 -3.95342,1.94829 -6.48253,1.94829 H 81.917283 v -0.0359 h -0.01125 c -0.831846,-1e-5 -1.584203,0.11082 -2.112892,0.28116 -0.264349,0.0852 -0.472583,0.18697 -0.600891,0.28472 -0.128303,0.0978 -0.16492,0.17479 -0.164902,0.22986 3.4e-5,0.055 0.0365,0.13331 0.164902,0.23105 0.128371,0.0978 0.336548,0.19838 0.600891,0.28353 0.528683,0.17029 1.281223,0.28147 2.112892,0.28146 h 0.01125 v -0.046 h 44.279087 c 4.53181,0 8.17278,-3.64246 8.17278,-8.17426 v -0.7385 c 0,-4.53181 -3.64097,-8.17308 -8.17278,-8.17308 H 81.917283 Z m 41.801687,2.02332 H 82.073283 l 0.004,0.0315 c -3.694571,0.48071 -6.470069,3.10264 -6.470069,6.25503 v 0.57479 c 0,3.15382 2.778677,5.77724 6.475705,6.25622 l -0.004,0.0315 h 41.640051 c 2.43957,0 4.63626,-0.71673 6.21234,-1.86198 1.57608,-1.14526 2.52663,-2.70602 2.52663,-4.42658 v -0.573 c 0,-1.72056 -0.95055,-3.28131 -2.52663,-4.42658 -1.57608,-1.14526 -3.77277,-1.86079 -6.21234,-1.86079 z" />
    <path
       id="rect7969"
       style="fill:#c0c0c0;fill-opacity:0.830519;fill-rule:evenodd;stroke:#000000;stroke-width:2;stroke-dasharray:none;stroke-opacity:1"
       d="m 149.53299,86.859334 v 16.970016 c 0,5.14022 4.13829,9.2785 9.2785,9.2785 h 115.30976 c 5.14022,0 9.27851,-4.13828 9.27851,-9.2785 V 86.859334 c -0.67763,3.5624 -4.51999,6.27558 -9.18704,6.27558 H 158.72003 c -4.66705,0 -8.50941,-2.71318 -9.18704,-6.27558 z" />
    <rect
       style="fill:#000000;fill-opacity:0;fill-rule:evenodd;stroke:#000000;stroke-width:2;stroke-dasharray:none;stroke-opacity:1"
       id="rect7975"
       width="23.652246"
       height="17.36458"
       x="204.63292"
       y="113.41667"
       rx="1.6393508"
       ry="1.6393508" />
    <rect
       style="fill:#000000;fill-opacity:0;fill-rule:evenodd;stroke:#000000;stroke-width:2;stroke-dasharray:none;stroke-opacity:1"
       id="rect8703"
       width="55.575275"
       height="4.4774652"
       x="188.6714"
       y="131.411"
       rx="3.8519542"
       ry="0.42270738" />
    <rect
       style="fill:#000000;fill-opacity:0;fill-rule:evenodd;stroke:#000000;stroke-width:1.78787;stroke-dasharray:none;stroke-opacity:1"
       id="rect8705"
       width="134.07887"
       height="78.413261"
       x="149.42699"
       y="14.721874"
       rx="9.2930832"
       ry="7.4028187" />
    <circle
       style="fill:#000000;fill-opacity:0;stroke:#000000;stroke-width:2;stroke-dasharray:none;stroke-opacity:1"
       id="path9490"
       cx="216.411"
       cy="103.64551"
       r="5.4217372" />
    <path
       id="path10012"
       style="color:#000000;fill:#202020;fill-opacity:1;fill-rule:evenodd;stroke:#000000;stroke-width:0.688719;stroke-dasharray:none;stroke-opacity:0.614073"
       d="m 62.573617,99.392142 c 4.778242,0 8.631305,3.854558 8.631305,8.632788 v 0.73851 c 0,4.77823 -3.853063,8.63249 -8.631305,8.63249 H 18.29453 v -0.0234 h -0.0112 c -0.86556,0 -1.64931,-0.11125 -2.23301,-0.29926 -0.29184,-0.094 -0.5335,-0.20608 -0.71625,-0.34523 -0.18276,-0.13914 -0.31812,-0.32204 -0.31824,-0.54038 -8e-5,-0.21838 0.13552,-0.40118 0.31824,-0.54039 0.18271,-0.1392 0.42439,-0.25119 0.71625,-0.34522 0.31139,-0.10033 0.67976,-0.17878 1.087,-0.23016 -3.21462,-0.8788 -5.545,-3.39034 -5.545,-6.39028 v -0.57478 c 0,-3.00684 2.34064,-5.52303 5.56665,-6.39622 -0.41583,-0.0516 -0.79175,-0.13132 -1.10865,-0.23342 -0.29186,-0.094 -0.53354,-0.20603 -0.71625,-0.34523 -0.18272,-0.13921 -0.31832,-0.3217 -0.31824,-0.54009 -8e-5,-0.21838 0.13552,-0.40117 0.31824,-0.54038 0.18271,-0.1392 0.42439,-0.251191 0.71625,-0.345231 0.58374,-0.188077 1.36726,-0.299259 2.23301,-0.299254 h 0.0112 v -0.01481 z m -44.279087,0.40484 h -0.0112 c -0.83184,-6e-6 -1.5842,0.109932 -2.11288,0.280278 -0.26436,0.0852 -0.47259,0.18697 -0.6009,0.28473 -0.1283,0.0977 -0.16492,0.17477 -0.1649,0.22985 -2e-5,0.0551 0.0366,0.13299 0.1649,0.23074 0.12831,0.0978 0.33654,0.19955 0.6009,0.28473 0.52868,0.17034 1.28104,0.28028 2.11288,0.28028 h 0.0112 v -0.027 h 41.801689 c 2.529104,0 4.816213,0.73746 6.482524,1.94828 1.666305,1.21083 2.716154,2.90867 2.716154,4.79881 v 0.573 c 0,1.89013 -1.049849,3.58797 -2.716154,4.79879 -1.666311,1.21083 -3.95342,1.94829 -6.482524,1.94829 H 18.29453 v -0.0359 h -0.0112 c -0.83184,-10e-6 -1.5842,0.11082 -2.11288,0.28117 -0.26436,0.0852 -0.47259,0.18696 -0.6009,0.28472 -0.1283,0.0978 -0.16492,0.17478 -0.1649,0.22985 3e-5,0.0551 0.0365,0.1333 0.1649,0.23105 0.12837,0.0977 0.33655,0.19839 0.6009,0.28353 0.52867,0.1703 1.28121,0.28147 2.11288,0.28146 h 0.0112 v -0.046 h 44.279087 c 4.531812,0 8.172779,-3.64246 8.172779,-8.17426 v -0.7385 c 0,-4.53182 -3.640967,-8.173088 -8.172779,-8.173088 H 18.29453 Z m 41.801689,2.023328 H 18.45053 l 0.004,0.0314 c -3.69457,0.48071 -6.47007,3.10264 -6.47007,6.25505 v 0.57478 c 0,3.15381 2.77868,5.77723 6.4757,6.25623 l -0.004,0.0314 h 41.640059 c 2.43957,0 4.636257,-0.71672 6.212334,-1.86198 1.576082,-1.14527 2.52663,-2.70601 2.52663,-4.42657 v -0.57301 c 0,-1.72056 -0.950548,-3.28133 -2.52663,-4.42659 -1.576077,-1.14526 -3.772764,-1.86079 -6.212334,-1.86079 z" />
    <path
       id="path10014"
       style="color:#000000;fill:#202020;fill-opacity:1;fill-rule:evenodd;stroke:#000000;stroke-width:0.688719;stroke-dasharray:none;stroke-opacity:0.614073"
       d="m 20.22354,80.720639 c -4.77824,0 -8.6313,3.854554 -8.6313,8.632784 v 0.738502 c 0,4.77823 3.85306,8.632487 8.6313,8.632487 h 44.279087 v -0.02341 h 0.01125 c 0.865565,5e-6 1.64931,-0.111246 2.233011,-0.299255 0.291845,-0.09401 0.533511,-0.206082 0.716262,-0.345232 0.182752,-0.139144 0.318114,-0.322039 0.318235,-0.54038 8e-5,-0.218388 -0.135518,-0.401179 -0.318235,-0.540387 -0.182711,-0.139201 -0.4244,-0.251187 -0.716262,-0.345226 -0.311387,-0.100329 -0.67976,-0.17878 -1.086994,-0.230152 3.214626,-0.878801 5.545005,-3.390347 5.545005,-6.390281 v -0.574792 c 0,-3.006833 -2.340653,-5.523016 -5.566654,-6.396214 0.415826,-0.0516 0.791752,-0.131317 1.108643,-0.233419 0.291862,-0.09404 0.533551,-0.206025 0.716262,-0.345227 0.182717,-0.139207 0.318315,-0.3217 0.318235,-0.540087 8e-5,-0.218388 -0.135518,-0.401174 -0.318235,-0.540381 -0.182711,-0.139202 -0.4244,-0.251193 -0.716262,-0.345232 -0.58373,-0.188077 -1.367262,-0.29926 -2.233011,-0.299254 h -0.01125 v -0.01481 z m 44.279087,0.40484 h 0.01125 c 0.831846,-6e-6 1.584203,0.109932 2.112892,0.28028 0.264349,0.08517 0.472583,0.18697 0.600891,0.284723 0.128303,0.09775 0.16492,0.174779 0.164902,0.229854 1.8e-5,0.0551 -0.03662,0.132991 -0.164902,0.230744 -0.128308,0.09775 -0.336542,0.199551 -0.600891,0.284728 -0.528689,0.170343 -1.281046,0.280279 -2.112892,0.280274 h -0.01125 v -0.02698 H 22.70094 c -2.52911,0 -4.81622,0.737463 -6.48253,1.948284 -1.6663,1.210824 -2.71615,2.908666 -2.71615,4.798793 v 0.573008 c 0,1.890127 1.04985,3.587964 2.71615,4.798789 1.66631,1.21082 3.95342,1.948289 6.48253,1.948289 h 41.801687 v -0.03587 h 0.01125 c 0.831846,-5e-6 1.584203,0.110821 2.112892,0.281163 0.264349,0.08518 0.472583,0.186971 0.600891,0.284723 0.128303,0.09775 0.16492,0.174785 0.164902,0.22986 -3.4e-5,0.05504 -0.0365,0.133302 -0.164902,0.231042 -0.128371,0.09775 -0.336548,0.198391 -0.600891,0.283535 -0.528683,0.170297 -1.281223,0.281468 -2.112892,0.281462 h -0.01125 V 98.26621 H 20.22354 c -4.53181,0 -8.17278,-3.642457 -8.17278,-8.174258 V 89.35345 c 0,-4.531806 3.64097,-8.173075 8.17278,-8.173075 H 64.502627 Z M 22.70094,83.148805 h 41.645687 l -0.004,0.03145 c 3.694571,0.480709 6.470069,3.102645 6.470069,6.255039 v 0.574788 c 0,3.153811 -2.778677,5.777229 -6.475705,6.256222 l 0.004,0.03145 H 22.70094 c -2.43957,0 -4.63626,-0.716722 -6.21234,-1.861981 -1.57608,-1.14526 -2.52663,-2.706012 -2.52663,-4.426571 v -0.573009 c 0,-1.720558 0.95055,-3.281316 2.52663,-4.426575 1.57608,-1.145259 3.77277,-1.860793 6.21234,-1.860793 z" />
    <path
       id="path10016"
       style="color:#000000;fill:#202020;fill-opacity:1;fill-rule:evenodd;stroke:#000000;stroke-width:0.688719;stroke-dasharray:none;stroke-opacity:0.614073"
       d="m 20.22354,118.03425 c -4.77824,0 -8.6313,3.85455 -8.6313,8.63279 v 0.7385 c 0,4.77823 3.85306,8.63248 8.6313,8.63248 h 44.279087 v -0.0234 h 0.01125 c 0.865565,1e-5 1.64931,-0.11124 2.233011,-0.29925 0.291845,-0.094 0.533511,-0.20609 0.716262,-0.34523 0.182752,-0.13915 0.318114,-0.32205 0.318235,-0.54039 8e-5,-0.21839 -0.135518,-0.40118 -0.318235,-0.54038 -0.182711,-0.1392 -0.4244,-0.25119 -0.716262,-0.34523 -0.311387,-0.10033 -0.67976,-0.17878 -1.086994,-0.23015 3.214626,-0.8788 5.545005,-3.39035 5.545005,-6.39028 v -0.57479 c 0,-3.00683 -2.340653,-5.52302 -5.566654,-6.39622 0.415826,-0.0516 0.791752,-0.13131 1.108643,-0.23341 0.291862,-0.094 0.533551,-0.20603 0.716262,-0.34523 0.182717,-0.13921 0.318315,-0.3217 0.318235,-0.54009 8e-5,-0.21838 -0.135518,-0.40117 -0.318235,-0.54038 -0.182711,-0.1392 -0.4244,-0.25119 -0.716262,-0.34523 -0.58373,-0.18808 -1.367262,-0.29926 -2.233011,-0.29925 h -0.01125 v -0.0148 z m 44.279087,0.40484 h 0.01125 c 0.831846,0 1.584203,0.10993 2.112892,0.28028 0.264349,0.0852 0.472583,0.18697 0.600891,0.28472 0.128303,0.0977 0.16492,0.17478 0.164902,0.22986 1.8e-5,0.0551 -0.03662,0.13299 -0.164902,0.23074 -0.128308,0.0977 -0.336542,0.19955 -0.600891,0.28473 -0.528689,0.17035 -1.281046,0.28028 -2.112892,0.28028 h -0.01125 v -0.027 H 22.70094 c -2.52911,0 -4.81622,0.73745 -6.48253,1.94827 -1.6663,1.21083 -2.71615,2.90868 -2.71615,4.7988 v 0.57301 c 0,1.89012 1.04985,3.58796 2.71615,4.79879 1.66631,1.21082 3.95342,1.94829 6.48253,1.94829 h 41.801687 v -0.0359 h 0.01125 c 0.831846,-1e-5 1.584203,0.11082 2.112892,0.28116 0.264349,0.0852 0.472583,0.18697 0.600891,0.28472 0.128303,0.0978 0.16492,0.17479 0.164902,0.22986 -3.4e-5,0.055 -0.0365,0.13331 -0.164902,0.23105 -0.128371,0.0978 -0.336548,0.19838 -0.600891,0.28353 -0.528683,0.17029 -1.281223,0.28147 -2.112892,0.28146 h -0.01125 v -0.046 H 20.22354 c -4.53181,0 -8.17278,-3.64246 -8.17278,-8.17426 v -0.7385 c 0,-4.53181 3.64097,-8.17308 8.17278,-8.17308 h 44.279087 z m -41.801687,2.02332 h 41.645687 l -0.004,0.0315 c 3.694571,0.48071 6.470069,3.10264 6.470069,6.25503 v 0.57479 c 0,3.15382 -2.778677,5.77724 -6.475705,6.25622 l 0.004,0.0315 H 22.70094 c -2.43957,0 -4.63626,-0.71673 -6.21234,-1.86198 -1.57608,-1.14526 -2.52663,-2.70602 -2.52663,-4.42658 v -0.573 c 0,-1.72056 0.95055,-3.28131 2.52663,-4.42658 1.57608,-1.14526 3.77277,-1.86079 6.21234,-1.86079 z" />
    <rect
       style="fill:#966f33;fill-opacity:1;fill-rule:evenodd;stroke-width:0;stroke-dasharray:none"
       id="rect10018"
       width="284.15359"
       height="6.8957353"
       x="7.1435804"
       y="137.82312"
       rx="3.6671312"
       ry="3.4478676" />
    <path
       id="path10756"
       style="fill:#c0c0c0;fill-opacity:0.83137298;fill-rule:evenodd;stroke:#000000;stroke-width:0;stroke-dasharray:none;stroke-opacity:1"
       d="M 255.77315 195.99783 L 242.45704 144.93792 L 237.20929 144.93792 L 237.20929 144.93792 L 250.52593 195.99783 " />
    <path
       id="path935"
       style="fill:#c0c0c0;fill-opacity:0.83137298;fill-rule:evenodd;stroke:#000000;stroke-width:0;stroke-dasharray:none;stroke-opacity:1"
       d="M 45.630141 195.99781 L 58.94679 144.93792 L 53.699565 144.93792 L 40.382835 195.9978 " />
    <text
       xml:space="preserve"
       style="font-style:normal;font-variant:normal;font-weight:normal;font-stretch:normal;font-size:22.5778px;line-height:1.25;font-family:'NotoMono Nerd Font Mono';-inkscape-font-specification:'NotoMono Nerd Font Mono';stroke-width:0.264583"
       x="221.76851"
       y="76.403847"
       id="text10815"><tspan
         sodipodi:role="line"
         id="tspan10813"
         style="font-style:normal;font-variant:normal;font-weight:normal;font-stretch:normal;font-family:'NotoMono Nerd Font Mono';-inkscape-font-specification:'NotoMono Nerd Font Mono';stroke-width:0.264583"
         x="221.76851"
         y="76.403847">Blog</tspan></text>
    <text
       xml:space="preserve"
       style="font-size:22.5778px;line-height:1.25;font-family:'NotoMono Nerd Font Mono';stroke-width:0.264583;fill:#0077bb;fill-opacity:0.93725491;-inkscape-font-specification:'NotoMono Nerd Font Mono';font-weight:normal;font-style:normal;font-stretch:normal;font-variant:normal"
       x="156.67961"
       y="47.100067"
       id="text10819"><tspan
         sodipodi:role="line"
         id="tspan10817"
         style="stroke-width:0.264583;fill:#0077bb;fill-opacity:0.93725491;-inkscape-font-specification:'NotoMono Nerd Font Mono';font-family:'NotoMono Nerd Font Mono';font-weight:normal;font-style:normal;font-stretch:normal;font-variant:normal"
         x="156.67961"
         y="47.100067">C-NERD'S</tspan></text>
  </g>
</svg>
